<svg id="lvl1" xmlns="http://www.w3.org/2000/svg" xmlns:xlink="http://www.w3.org/1999/xlink" viewBox="-0.17835909128189087 0 1380.356689453125 840" preserveAspectRatio="xMidYMid meet" xmlns:svg="http://www.w3.org/2000/svg"><polygon id="room-111" points="118.88 199.838 33.9814 205.831 5.01589 222.81 13.0064 284.737 131.865 285.735"></polygon><polygon id="room-110" points="16.0028 288.732 27.9885 364.642 143.851 365.64 132.864 287.733"></polygon><polygon id="room-109B" points="26.9897 364.642 36.9778 414.582 149.843 410.587 140.854 365.64"></polygon><polygon id="room-109" points="36.9778 417.578 48.9636 483.5 67.941 507.471 161.829 515.462 148.845 414.582"></polygon><polygon id="room-112" points="156.835 199.838 331.627 184.856 341.615 287.733 168.821 282.739"></polygon><polygon id="room-108" points="253.72 414.582 351.603 418.577 357.596 524.451 260.711 522.454"></polygon><polygon id="room-113" points="336.621 183.857 442.495 176.865 454.481 380.622 350.604 379.624"></polygon><polygon id="room-107" points="355.599 415.581 432.507 419.576 435.503 527.448 360.593 525.45"></polygon><polygon id="room-118" points="529.392 170.872 855.004 160.884 846.015 339.671 706.181 340.67 707.18 288.732 536.383 288.732"></polygon><polygon id="room-116" points="535.385 288.732 611.294 290.73 614.291 380.622 538.381 382.62"></polygon><polygon id="room-117" points="612.293 289.731 703.185 290.73 702.186 377.626 615.289 379.624"></polygon><polygon id="room-106" points="432.507 418.577 506.419 418.577 511.413 525.45 439.499 525.45"></polygon><polygon id="room-105" points="509.415 420.575 586.324 421.574 588.321 527.448 515.408 527.448"></polygon><polygon id="room-104" points="588.321 421.574 761.116 417.578 757.121 524.451 590.319 526.449"></polygon><polygon id="room-102" points="763.113 417.578 841.021 417.578 836.027 522.454 760.117 522.454"></polygon><polygon id="room-100" points="1008.8208618164062 506.4726867675781 1120.687744140625 482.501220703125 1178.6187744140625 457.53094482421875 1230.556884765625 403.59515380859375 1266.51416015625 326.68670654296875 1283.493896484375 224.8079833984375 1276.502197265625 171.87100219726562 1257.5247802734375 162.8817138671875 1235.551025390625 158.88645935058594 1045.77685546875 157.8876495361328"></polygon><polygon id="room-101" points="917.929 438.554 1009.82 436.556 1006.82 505.474 911.936 519.457"></polygon><polygon id="room-188A" points="530.39 252.775 525.396 170.872 443.494 174.867 453.482 283.738 493.434 281.74 496.431 251.776"></polygon><polygon id="room-114" points="453.482 283.738 501.425 283.738 501.425 339.671 457.477 336.675"></polygon><polygon id="room-115" points="456.478 339.671 503.423 339.671 503.423 383.619 459.475 381.621"></polygon><polygon id="room-119" points="737.144 342.668 735.147 381.621 843.018 376.627 844.017 341.669"></polygon><defs id="pathsegapi"></defs></svg>