<svg id="lvl2" xmlns="http://www.w3.org/2000/svg" xmlns:xlink="http://www.w3.org/1999/xlink" viewBox="-0.17835909128189087 0 1380.356689453125 840" preserveAspectRatio="xMidYMid meet" xmlns:svg="http://www.w3.org/2000/svg"><rect id="svgEditorBackground" x="0" y="0" width="1380" height="840" style="fill: none; stroke: none;"></rect><polygon style="stroke:black;fill:khaki;stroke-width:1px;" id="room-211" points="122.876 200.836 37.9767 206.829 9.01113 223.809 17.0016 285.735 135.86 286.734"></polygon><polygon style="stroke:black;fill:khaki;stroke-width:1px;" id="room-210" points="16.0028 288.732 27.9885 364.642 143.851 365.64 132.864 287.733"></polygon><polygon style="stroke:black;fill:khaki;stroke-width:1px;" id="room-209B" points="24.9921 364.642 34.9802 414.582 147.846 410.587 138.857 365.64"></polygon><polygon style="stroke:black;fill:khaki;stroke-width:1px;" id="room-209" points="31.9838 414.582 43.9695 480.504 62.9469 504.475 156.835 512.465 143.851 411.586"></polygon><polygon style="stroke:black;fill:khaki;stroke-width:1px;" id="room-208" points="214.766 407.59 312.65 411.586 318.643 517.459 221.758 515.462"></polygon><polygon style="stroke:black;fill:khaki;stroke-width:1px;" id="room-205" points="465.468 413.583 542.377 411.586 540.379 525.451 470.462 524.452"></polygon><polygon style="stroke:black;fill:khaki;stroke-width:1px;" id="room-216" points="517.406 282.739 593.315 284.737 596.312 378.81 520.402 376.627" transform="matrix(1.06061 0 0 0.955621 -29.7538 16.1294)"></polygon><polygon style="stroke:black;fill:khaki;stroke-width:1px;" id="room-217" points="601.305 285.735 688.202 284.737 685.205 379.624 605.301 380.622"></polygon><polygon style="stroke:black;fill:khaki;stroke-width:1px;" id="room-202" points="722.161 413.583 800.068 413.583 795.074 518.459 719.165 518.459" transform="matrix(1.19802 0 0 1.048 -140.431 -19.3725)"></polygon><polygon style="stroke:black;fill:khaki;stroke-width:1px;" id="room-200" points="996.835 515.462 1120.69 482.501 1178.62 457.531 1230.56 403.595 1266.51 326.687 1283.49 224.808 1276.5 171.871 1257.52 162.882 1235.55 158.886 1014.81 155.89"></polygon><polygon style="stroke:black;fill:khaki;stroke-width:1px;" id="room-201" points="906.772 441.55 998.662 439.552 995.666 508.47 900.779 522.453" transform="matrix(1.09322 0 0 1 -93.8564 0)"></polygon><polygon style="stroke:black;fill:khaki;stroke-width:1px;" id="room-222" points="441.496 334.677 488.44 334.677 488.44 378.625 444.493 376.627"></polygon><polygon style="stroke:black;fill:khaki;stroke-width:1px;" id="room-220" points="719.166 339.671 717.168 378.625 825.04 373.631 826.039 338.672"></polygon><polygon style="stroke:black;fill:khaki;stroke-width:1px;" id="room-212" points="160.63 197.765 247.526 191.772 253.519 297.646 201.581 296.647 200.582 318.621 166.622 320.618"></polygon><polygon style="stroke:black;fill:khaki;stroke-width:1px;" id="room-212B" points="249.524 187.776 255.517 294.649 332.425 296.647 326.432 181.784"></polygon><polygon style="stroke:black;fill:khaki;stroke-width:1px;" id="room-215" points="439.498 290.729 486.442 290.729 486.442 334.677 442.495 332.679" transform="matrix(0.960028 0 0 1.06449 17.1682 -22.2951)"></polygon><polygon style="stroke:black;fill:khaki;stroke-width:1px;" id="room-213" points="483.246 280.666 484.244 174.792 326.432 181.784 333.424 266.683 358.394 265.684 364.387 277.669"></polygon><polygon style="stroke:black;fill:khaki;stroke-width:1px;" id="room-214" points="364.387 279.667 368.382 371.558 434.304 375.553 436.301 375.553 436.301 279.667"></polygon><polygon style="stroke:black;fill:khaki;stroke-width:1px;" id="room-221" points="1012.6152954101562 159.80975341796875 1007.6212768554688 274.6730041503906 827.8352661132812 279.66705322265625 830.8317260742188 160.80856323242188"></polygon><polygon style="stroke:black;fill:khaki;stroke-width:1px;" id="room-219" points="722.96 163.805 826.836 161.807 818.846 335.6 716.967 338.597"></polygon><polygon style="stroke:black;fill:khaki;stroke-width:1px;" id="room-203" points="716.967 414.507 712.972 524.376 618.085 525.375 618.085 415.505"></polygon><polygon style="stroke:black;fill:khaki;stroke-width:1px;" id="room-204" points="615.089 415.505 614.09 521.379 539.179 525.375 540.178 415.505"></polygon><polygon style="stroke:black;fill:khaki;stroke-width:1px;" id="room-206" points="463.269 414.507 465.267 523.377 393.353 522.378 393.353 413.508"></polygon><polygon style="stroke:black;fill:khaki;stroke-width:1px;" id="room-207" points="389.357 413.508 391.355 522.378 315.445 518.383 314.446 411.51"></polygon><polygon style="stroke:black;fill:khaki;stroke-width:1px;" id="room-218" points="484.244 173.793 485.243 278.668 714.97 281.665 718.965 164.804"></polygon><defs id="pathsegapi"></defs></svg>
