<svg id="lvl3" xmlns="http://www.w3.org/2000/svg" xmlns:xlink="http://www.w3.org/1999/xlink" viewBox="-0.17835909128189087 0 1380.356689453125 840" preserveAspectRatio="xMidYMid meet" xmlns:svg="http://www.w3.org/2000/svg"><rect id="svgEditorBackground" x="0" y="0" width="1380" height="840" style="fill: none; stroke: none;"></rect><polygon style="stroke:black;fill:khaki;stroke-width:1px;" id="room-314" points="116.883 203.833 31.9838 209.826 3.01827 226.806 11.0088 288.732 129.867 289.731"></polygon><polygon style="stroke:black;fill:khaki;stroke-width:1px;" id="room-313" points="14.0052 293.726 25.9909 369.636 141.853 370.634 130.866 292.727"></polygon><polygon style="stroke:black;fill:khaki;stroke-width:1px;" id="room-312" points="24.9921 370.634 34.9802 420.575 147.846 416.58 138.857 371.633"></polygon><polygon style="stroke:black;fill:khaki;stroke-width:1px;" id="room-311" points="36.9778 423.571 48.9636 489.493 67.941 513.464 161.829 521.455 148.845 420.575"></polygon><polygon style="stroke:black;fill:khaki;stroke-width:1px;" id="room-308" points="299.665 419.576 350.604 421.574 367.584 535.438 315.646 532.442"></polygon><polygon style="stroke:black;fill:khaki;stroke-width:1px;" id="room-305" points="516.407 421.574 564.351 419.576 562.354 533.441 516.407 527.448"></polygon><polygon style="stroke:black;fill:khaki;stroke-width:1px;" id="room-322" points="536.24 286.92 612.15 288.917 615.146 382.991 539.236 380.808" transform="matrix(1.06061 0 0 0.955621 -29.7538 16.1294)"></polygon><polygon style="stroke:black;fill:khaki;stroke-width:1px;" id="room-302" points="738.836 420.255 820.911 417.396 811.749 525.13 735.839 525.13" transform="matrix(1.19802 0 0 1.048 -140.431 -19.3725)"></polygon><polygon style="stroke:black;fill:khaki;stroke-width:1px;" id="room-300" points="1012.82 514.463 1136.67 481.503 1194.6 456.532 1246.54 402.596 1282.5 325.688 1299.47 223.809 1292.48 170.872 1273.51 161.883 1251.53 157.888 1056.76 151.895"></polygon><polygon style="stroke:black;fill:khaki;stroke-width:1px;" id="room-321" points="455.48 340.67 502.424 340.67 502.424 384.618 458.476 382.62"></polygon><polygon style="stroke:black;fill:khaki;stroke-width:1px;" id="room-320" points="457.185 295.421 504.129 295.421 504.129 339.369 460.182 337.371" transform="matrix(0.960028 0 0 1.06449 17.1682 -22.2951)"></polygon><polygon style="stroke:black;fill:khaki;stroke-width:1px;" id="room-303" points="742.935 420.499 738.94 530.368 644.053 531.367 644.053 421.498"></polygon><polygon style="stroke:black;fill:khaki;stroke-width:1px;" id="room-304" points="641.057 420.499 640.059 526.373 565.148 530.368 566.147 420.499"></polygon><polygon style="stroke:black;fill:khaki;stroke-width:1px;" id="room-306" points="512.211 425.493 512.211 533.365 417.324 536.362 410.332 421.498"></polygon><polygon style="stroke:black;fill:khaki;stroke-width:1px;" id="room-307" points="408.335 425.493 410.332 535.363 366.385 533.365 355.398 423.496"></polygon><polygon style="stroke:black;fill:khaki;stroke-width:1px;" id="room-315" points="154.637 194.768 165.624 271.677 287.479 264.685 276.492 186.778"></polygon><polygon style="stroke:black;fill:khaki;stroke-width:1px;" id="room-316" points="387.36 179.786 398.347 258.692 292.473 264.685 278.49 185.779"></polygon><polygon style="stroke:black;fill:khaki;stroke-width:1px;" id="room-323" points="617.799 287.501 693.71 289.498 696.706 383.572 620.796 381.389" transform="matrix(1.06061 0 0 0.955621 -29.7538 16.1294)"></polygon><polygon style="stroke:black;fill:khaki;stroke-width:1px;" id="room-318" points="376.373 287.658 450.285 289.655 453.282 336.599 381.367 338.597"></polygon><polygon style="stroke:black;fill:khaki;stroke-width:1px;" id="room-319" points="453.282 341.593 455.279 383.543 384.364 383.543 384.364 340.595"></polygon><polygon style="stroke:black;fill:khaki;stroke-width:1px;" id="room-317" points="386.361 177.788 522.2 171.795 532.188 253.698 398.347 259.691"></polygon><polygon style="stroke:black;fill:khaki;stroke-width:1px;" id="room-325" points="528.193 171.795 536.183 284.661 718.965 285.66 725.957 163.805"></polygon><polygon style="stroke:black;fill:khaki;stroke-width:1px;" id="room-326" points="862.794 158.811 847.812 349.584 709.976 349.584 710.975 287.658 722.961 287.658 724.958 160.809"></polygon><polygon style="stroke:black;fill:khaki;stroke-width:1px;" id="room-302A" points="842.818 483.424 838.823 527.372 887.764 524.376 893.757 482.426"></polygon><polygon style="stroke:black;fill:khaki;stroke-width:1px;" id="room-302B" points="844.816 440.476 841.819 479.429 893.757 477.432 893.757 441.474"></polygon><polygon style="stroke:black;fill:khaki;stroke-width:1px;" id="room-309" points="226.552 414.507 295.47 421.498 308.454 528.371 239.536 527.372"></polygon><polygon style="stroke:black;fill:khaki;stroke-width:1px;" id="room-327" points="1052.57 155.815 863.793 156.813 851.807 333.603 888.763 332.604 894.756 283.662 1039.58 278.668"></polygon><defs id="pathsegapi"></defs></svg>
